<svg viewBox="0 0 24 24" xmlns="http://www.w3.org/2000/svg"><path d="M18.5 2.283a2.717 2.717 0 0 0-1.016.344c-.315.175-.538.392-5.572 5.413-3.239 3.231-3.593 3.597-3.632 3.75-.029.113-.039.731-.032 1.82.011 1.578.016 1.657.095 1.807a.59.59 0 0 0 .24.24c.15.079.229.084 1.807.095 1.086.007 1.707-.003 1.82-.032.153-.039.516-.39 3.73-3.612 5.078-5.09 5.291-5.31 5.467-5.648.252-.484.332-.811.332-1.36s-.08-.876-.332-1.36c-.194-.373-.725-.911-1.106-1.123a3.057 3.057 0 0 0-1.801-.334m.888 1.564c.316.118.647.449.765.765.115.306.115.669.001.976-.074.198-.166.313-.63.783l-.544.551-.951-.952-.952-.953.552-.542c.453-.446.59-.558.771-.627.3-.114.685-.115.988-.001M17.35 8.56c-.313.319-1.713 1.727-3.11 3.13l-2.54 2.55H9.76v-1.95l3.126-3.109 3.125-3.109.954.953.955.954-.57.581M5.617 6.281c-.589.073-1.099.331-1.552.783a2.742 2.742 0 0 0-.696 1.116l-.109.32v10l.109.32c.151.445.362.783.695 1.116.333.333.671.544 1.116.695l.32.109h10l.32-.109a2.736 2.736 0 0 0 1.116-.695c.334-.334.545-.674.693-1.116.102-.307.107-.356.109-1.2.002-1.012-.019-1.098-.305-1.259-.232-.13-.634-.13-.866 0-.274.154-.303.258-.326 1.179-.019.734-.029.816-.114.989-.132.268-.416.534-.674.63-.212.08-.301.081-4.953.081s-4.741-.001-4.953-.081c-.258-.096-.542-.362-.674-.63l-.093-.189V8.66l.093-.188a1.43 1.43 0 0 1 .599-.599c.172-.085.255-.095.988-.113.707-.018.818-.03.957-.103.221-.115.323-.325.322-.657-.002-.336-.089-.517-.31-.642-.158-.09-.214-.096-.849-.104a10.32 10.32 0 0 0-.963.027" fill-rule="evenodd" /></svg>
